<svg width="83" height="61" viewBox="0 0 83 61" fill="none" xmlns="http://www.w3.org/2000/svg">
<path d="M82.8973 15.0706L82.7947 15.0193L82.7434 14.9681L82.692 14.9168L62.2628 0.615126L62.1088 0.563866L62.0575 0.666387L61.9549 0.717647H61.8522V0.768908L60.7743 0L40.4477 13.9941L21.1991 0.563866L21.0451 0.461345L20.9938 0.563866L20.9425 0.615126H20.7885V0.717647L13.859 5.53613L0.359307 14.9168L0.307978 14.8655L0.205318 15.0193H0V15.2756V30.3975V43.7252V43.9815H0.205318L0.307978 44.1353L0.359307 44.084L3.54174 46.2882L20.8398 58.3857L20.9425 58.2319L20.8398 58.3857L20.9425 58.2319L21.0451 58.3345L29.5145 52.4395L41.5257 61L53.2288 52.2857L61.9035 58.3345L62.0062 58.2319L61.9035 58.3857H61.9549L62.0062 58.2319L62.1088 58.3857H62.1602L62.0575 58.2319L62.1602 58.3857L82.8973 43.9303L82.9487 43.879L82.8973 43.7765H83.0513V43.7252V30.0899V15.2244V15.0706H82.8973ZM30.5925 51.4143L21.1478 44.8529V29.8849L41.3203 43.9815V58.9496L30.5925 51.4143ZM81.3061 43.0076L62.2115 56.3353V44.6992L73.1447 37.0613L81.3061 31.3714V43.0076ZM61.8522 56.3353L54.2041 51.0042L53.6908 50.6454L61.8009 44.9555V56.3353H61.8522ZM62.2115 29.2185L62.1088 29.1672L62.0062 29.321H61.8009V29.5261L41.4743 43.674L21.2505 29.5261L41.6283 15.3269L41.7823 15.2244L60.9283 1.89664L81.2548 15.8908V15.942L62.2115 29.2185ZM1.64255 16.3008L20.7885 29.6798V44.9555V56.3866L1.64255 43.2639V16.3008ZM21.1478 45.263L29.0526 50.7992L28.5393 51.158L21.1478 56.3353V45.263ZM20.9425 29.321L1.64255 15.8395V15.7882L20.9425 2.40924L39.2672 15.4294L40.0371 15.9933L20.9425 29.321ZM41.6797 43.9815L62.1088 29.7311L62.3142 29.5773L81.2548 16.3521L81.3061 30.9101L72.8881 36.805L61.9035 44.4941L53.3828 50.4403H53.3315L52.5102 51.0555L52.2022 51.2605L52.1509 51.3118L41.6797 58.642V43.9815ZM40.1398 14.2504L37.8299 12.6101L40.1398 14.2504ZM20.9425 58.2319L21.0451 58.3345L20.9425 58.2319ZM41.4743 59.2059L41.269 59.0521L41.3203 58.9496H41.4743L41.577 59.1034L41.9363 58.8471L41.4743 59.2059Z" fill="#333333"/>
</svg>
