<svg width="60" height="89" viewBox="0 0 60 89" fill="none" xmlns="http://www.w3.org/2000/svg">
<g clip-path="url(#clip0_3080_1573)">
<path d="M60 60.502H0V0H60V60.502ZM3.46614 57.0069H56.5339V3.49514H3.46614V57.0069Z" fill="#4F4F4F"/>
<path d="M60 89.0004H0V57.0073H60V89.0004ZM3.46614 85.5053H56.5339V60.5025H3.46614V85.5053Z" fill="#4F4F4F"/>
<path d="M15.0925 70.0884H16.994V72.2906H19.2323V70.0884H21.1338V76.1583H19.2323V73.6712H16.994V76.1583H15.0925V70.0884Z" fill="#4F4F4F"/>
<path d="M29.272 73.113C29.272 74.8222 28.1528 76.3013 25.8058 76.3013C23.6544 76.3013 22.4592 74.8989 22.4592 73.124C22.4592 71.4586 23.6327 69.9575 25.8928 69.9575C28.0659 69.9575 29.272 71.4038 29.272 73.113ZM24.4585 73.0911C24.4585 74.1539 24.8931 74.9427 25.8928 74.9427C26.925 74.9427 27.2618 74.0333 27.2618 73.124C27.2618 72.0721 26.8815 71.2833 25.8384 71.2833C24.8605 71.2833 24.4585 72.105 24.4585 73.0911Z" fill="#4F4F4F"/>
<path d="M36.1941 74.0875C36.1941 73.1124 36.2049 71.9619 36.2484 71.2498H36.2375C35.9442 72.4221 35.553 73.9999 34.9337 76.1583H33.3581C32.8801 74.1642 32.4672 72.455 32.1629 71.2388H32.1521C32.1847 71.951 32.2607 73.1124 32.2607 74.1533V76.1583H30.5657V70.0884H33.2821C33.695 71.5346 34.0861 73.0247 34.26 74.0218H34.2709C34.499 72.959 34.9011 71.5456 35.3248 70.0884H38.0412V76.1583H36.1941V74.0875V74.0875Z" fill="#4F4F4F"/>
<path d="M44.7885 73.7367H41.5614V74.7885H45.1688L44.9515 76.1691H39.6816V70.0991H44.9623V71.4797H41.5614V72.3562H44.7885V73.7367Z" fill="#4F4F4F"/>
<path d="M11.506 21.2305H21.8935C26.3919 21.2305 28.3368 23.4327 28.3368 26.1061C28.3368 28.2974 26.9786 29.6013 25.5335 30.1491C27.3481 30.7188 29.0214 32.1322 29.0214 34.5317C29.0214 38.0816 26.3158 40.1634 21.7197 40.1634H11.4951V21.2305H11.506ZM20.9373 28.648C22.9801 28.648 23.632 27.8373 23.632 26.6868C23.632 25.2625 22.5563 24.6818 20.9808 24.6818H15.9826V28.648H20.9373ZM15.9826 36.7449H21.1329C22.8932 36.7449 24.2188 36.23 24.2188 34.3564C24.2188 32.8444 23.1974 32.0665 21.2199 32.0665H15.9826V36.7449Z" fill="#4F4F4F"/>
<path d="M37.5728 40.1634V33.3922C37.5728 33.1402 37.4967 33.0088 37.3446 32.7787L29.5757 21.2305H34.9868C36.8231 24.1997 39.1374 27.8044 40.0393 29.5903C40.9955 27.8263 43.3533 24.1997 45.2005 21.2305H50.166L42.2667 32.9649C42.1581 33.1183 42.1581 33.2279 42.1581 33.4689V40.1634H37.5728V40.1634Z" fill="#4F4F4F"/>
</g>
<defs>
<clipPath id="clip0_3080_1573">
<rect width="60" height="89" fill="white"/>
</clipPath>
</defs>
</svg>
