<svg width="16" height="16" viewBox="0 0 16 16" fill="none" xmlns="http://www.w3.org/2000/svg">
<g clip-path="url(#clip0_3010_1632)">
<path d="M7.375 15.6875C7.65625 16.125 8.3125 16.125 8.59375 15.6875C13.1562 9.125 14 8.4375 14 6C14 2.6875 11.3125 0 8 0C4.65625 0 2 2.6875 2 6C2 8.4375 2.8125 9.125 7.375 15.6875ZM8 8.5C6.59375 8.5 5.5 7.40625 5.5 6C5.5 4.625 6.59375 3.5 8 3.5C9.375 3.5 10.5 4.625 10.5 6C10.5 7.40625 9.375 8.5 8 8.5Z" fill="#4F4F4F"/>
</g>
<defs>
<clipPath id="clip0_3010_1632">
<rect width="16" height="16" fill="white"/>
</clipPath>
</defs>
</svg>

