<svg width="100%" height="100%" viewBox="0 0 77 42" fill="none" xmlns="http://www.w3.org/2000/svg">
<path d="M3.31959 5.21582H1V41.3623H76V5.21582H73.2938" stroke="#4F4F4F"/>
<path fill-rule="evenodd" clip-rule="evenodd" d="M20.8515 0C17.1433 0 12.7297 0.542974 9.2569 1.08218C7.51754 1.35223 6.00846 1.62227 4.93396 1.82484C4.39664 1.92613 3.96779 2.0106 3.67295 2.06981C3.52552 2.09941 3.41158 2.12271 3.33431 2.13864L3.24631 2.15688L3.22369 2.16162L3.21785 2.16285L3.21631 2.16317L3.21589 2.16326C3.21578 2.16328 3.21571 2.1633 3.319 2.65251L3.21571 2.1633L2.819 2.24706V2.65251V5.30176V7.951V8.11658V39.0796V39.6962L3.42229 39.5688L3.319 39.0796L3.42234 39.5688L3.42262 39.5688L3.42387 39.5685L3.42915 39.5674L3.45063 39.5629L3.53626 39.5452C3.61191 39.5296 3.72416 39.5066 3.86983 39.4774C4.16118 39.4188 4.58613 39.3351 5.11922 39.2346C6.18555 39.0336 7.68378 38.7655 9.41032 38.4975C12.8693 37.9604 17.2219 37.4271 20.8515 37.4271C27.983 37.4271 34.1949 39.0063 37.8835 41.3074V41.9997L38.4119 41.6482L38.8839 41.9553V41.3374C42.5391 39.0096 48.7793 37.4602 55.9159 37.4602C59.5454 37.4602 63.8981 37.9935 67.3571 38.5306C69.0836 38.7986 70.5818 39.0667 71.6482 39.2678C72.1813 39.3683 72.6062 39.452 72.8976 39.5105C73.0432 39.5397 73.1555 39.5627 73.2311 39.5783L73.3168 39.596L73.3382 39.6005L73.3435 39.6016L73.3448 39.6019L73.3451 39.602L73.4484 39.1128L73.3451 39.602L73.9484 39.7293V39.1128V8.11658V7.951V5.30176V2.65251V2.24706L73.5517 2.1633L73.4484 2.65251C73.5517 2.1633 73.5516 2.16328 73.5515 2.16326L73.5511 2.16317L73.5495 2.16285L73.5437 2.16162L73.5211 2.15688L73.4331 2.13864C73.3558 2.12271 73.2419 2.09941 73.0945 2.06981C72.7996 2.0106 72.3708 1.92614 71.8334 1.82484C70.7589 1.62227 69.2499 1.35223 67.5105 1.08218C64.0377 0.542974 59.6241 0 55.9159 0C48.6974 0 42.263 1.58738 38.3837 4.0433C34.5044 1.58738 28.07 0 20.8515 0ZM38.8839 40.1672V9.93794V7.28869V4.91022C42.5402 2.58035 48.7814 1 55.9159 1C59.5454 1 63.8981 1.53328 67.3571 2.07034C69.0836 2.33841 70.5818 2.6065 71.6482 2.80753C72.1813 2.90803 72.6062 2.99173 72.8976 3.05023L72.9484 3.06046V5.30176V7.951V8.11658V38.5009C72.6646 38.4444 72.2878 38.3707 71.8334 38.2851C70.7589 38.0825 69.2499 37.8125 67.5105 37.5424C64.0377 37.0032 59.6241 36.4602 55.9159 36.4602C49.0014 36.4602 42.8039 37.8879 38.8839 40.1672ZM37.8835 4.91022C34.2272 2.58035 27.986 1 20.8515 1C17.2219 1 12.8693 1.53328 9.41032 2.07034C7.68378 2.33841 6.18555 2.6065 5.11922 2.80753C4.58613 2.90803 4.16118 2.99173 3.86983 3.05023L3.819 3.06046V5.30176V7.951V8.11658V38.4677C4.1028 38.4112 4.47959 38.3376 4.93396 38.252C6.00846 38.0494 7.51754 37.7794 9.2569 37.5093C12.7297 36.9701 17.1433 36.4271 20.8515 36.4271C27.7748 36.4271 33.9446 37.8873 37.8835 40.1427V9.93794V7.28869V4.91022Z" fill="#4F4F4F"/>
</svg>
